<svg width="120" height="120" viewBox="0 0 120 120" fill="none" xmlns="http://www.w3.org/2000/svg">
<path d="M59.9961 6.00098C89.8193 6.00098 113.996 30.1775 113.996 60.001C113.996 89.8243 89.8194 114.001 59.9961 114.001C30.1727 114.001 5.99609 89.8243 5.99609 60.001C5.99622 30.1775 30.1728 6.00098 59.9961 6.00098Z" fill="#E81C5B" stroke="black" stroke-width="2"/>
<path d="M58.6732 92.9506C58.4301 92.9265 58.0249 92.8887 57.7744 92.8681C56.1499 92.734 53.8512 92.1908 51.9872 91.5031C50.8416 91.0803 50.2043 90.7261 49.6076 90.1692C49.1913 89.7841 48.9887 89.5194 48.775 89.0999C48.5872 88.7252 48.5098 88.4226 48.3956 87.6456C48.274 86.8274 48.1598 86.3564 47.972 85.9129C47.5704 84.9502 46.9111 84.1904 45.957 83.5887C45.5186 83.3137 44.7155 82.9733 44.1004 82.7945C43.7651 82.7017 42.9658 82.5332 42.6121 82.4851C40.5824 82.2135 39.0905 81.6909 37.8233 80.8005C37.4402 80.5323 36.6629 79.8206 36.3314 79.439C35.8635 78.8923 35.3736 78.1497 34.9352 77.3108C32.0988 71.8925 31.5867 70.8954 30.8168 69.2864C30.0616 67.7015 29.8885 66.9485 30.0616 65.9996C30.1943 65.2879 30.4337 64.7207 30.9531 63.9024C31.0968 63.6755 31.2883 63.3523 31.3767 63.1804C31.7193 62.51 31.9735 61.5439 32.0951 60.4197C32.1356 60.0483 32.1798 59.7183 32.1908 59.6908C32.2019 59.6633 32.2277 59.1751 32.2461 58.6078C32.2645 58.0405 32.2977 57.3529 32.3161 57.0779C32.3898 55.9949 32.4266 53.6811 32.4045 51.3879C32.375 48.1355 32.4156 47.4547 32.7434 45.7666C33.0528 44.1714 33.6386 42.4833 34.3974 41.0015C35.1378 39.5541 36.254 37.9898 37.5065 36.6558C38.8805 35.1877 40.5456 33.8331 42.5606 32.537C46.8116 29.8106 51.1879 28.1191 55.8183 27.4108C56.8829 27.2493 57.5349 27.1702 58.2422 27.1152C58.5995 27.0911 59.1374 27.0499 59.4358 27.0258C59.8668 26.9914 60.0878 26.9914 60.5409 27.0258C60.8503 27.0464 61.3992 27.0877 61.7565 27.1152C62.7732 27.1908 64.302 27.4074 65.4697 27.6378C69.0908 28.3494 72.2957 29.5596 75.7473 31.5159C78.1086 32.8533 80.4957 34.6136 81.9471 36.0885C84.2089 38.3817 85.6198 40.5717 86.5591 43.2397C86.9275 44.2814 87.2737 45.6566 87.3879 46.5333C87.41 46.6984 87.4432 46.9115 87.4616 47.0078C87.5684 47.5304 87.5795 48.0392 87.5758 51.7317C87.5684 54.8328 87.5795 55.6201 87.6237 56.098C87.6532 56.4212 87.6974 57.2257 87.7195 57.8858C87.7416 58.5493 87.7747 59.2507 87.7932 59.4501C87.911 60.6122 87.9589 60.9697 88.0694 61.4958C88.2831 62.4894 88.5152 63.0807 88.983 63.8061C89.5245 64.6485 89.7971 65.2811 89.9297 65.9996C90.0181 66.481 90.0218 66.7182 89.9481 67.1514C89.8303 67.8287 89.6682 68.2653 89.0751 69.5064C88.5667 70.5619 88.0879 71.5143 87.3216 72.9789C86.9275 73.7353 86.3602 74.8251 86.0618 75.4027C84.5552 78.3182 84.2789 78.7651 83.4206 79.7037C82.3707 80.8417 80.9856 81.6634 79.3832 82.0932C78.9043 82.2204 77.8471 82.4301 77.4971 82.4679C77.0956 82.5092 76.1268 82.7258 75.6368 82.8805C74.6127 83.2105 73.8502 83.6334 73.2056 84.2385C72.3215 85.0602 71.8315 86.0298 71.6584 87.2984C71.5147 88.3539 71.4411 88.6599 71.2348 89.0759C70.859 89.8322 70.1591 90.5027 69.2419 90.9771C67.6542 91.7988 64.3241 92.6962 62.228 92.8681C61.996 92.8852 61.5797 92.9231 61.3071 92.954C60.6919 93.0159 59.2958 93.0159 58.6732 92.9506ZM57.8112 85.765C58.1428 85.6722 58.5406 85.459 58.9863 85.1324C59.6752 84.6236 59.7341 84.5858 59.8704 84.548C60.073 84.4964 60.2278 84.5583 60.5924 84.8299C61.7086 85.6653 62.0512 85.82 62.8064 85.82C63.1342 85.82 63.2742 85.8028 63.4547 85.7478C64.2062 85.514 64.8877 84.8092 65.105 84.0426C65.2634 83.4959 65.1824 82.633 64.9172 82.0175C64.6151 81.3024 63.3884 79.6212 60.8945 76.4995C60.2867 75.7396 60.1357 75.6331 59.8226 75.7431C59.6605 75.8015 59.5021 75.9837 58.338 77.4656C55.6047 80.9517 55.0447 81.7906 54.8974 82.6261C54.8421 82.9596 54.8532 83.8397 54.9158 84.0941C55.0889 84.7817 55.7925 85.5072 56.5182 85.741C56.8203 85.8407 57.4944 85.851 57.8112 85.765ZM49.556 75.4027C50.3075 75.3271 51.081 75.2239 51.5268 75.1414C53.004 74.8664 54.5253 74.2303 55.5089 73.4774C56.0394 73.0717 56.5735 72.4047 56.7577 71.9096C56.8387 71.693 56.8498 71.6174 56.8498 71.0776C56.8498 70.5757 56.8387 70.4553 56.7761 70.2903C56.5661 69.7299 55.9067 69.1351 55.0632 68.7398C54.9416 68.6847 53.947 68.3066 52.8529 67.8974C48.9629 66.45 45.887 65.2329 42.5753 63.8336C41.0871 63.2045 40.7924 63.1323 39.7388 63.1288C39.1642 63.1288 38.9837 63.1426 38.7332 63.1976C37.5102 63.4727 36.6445 64.3425 36.2872 65.6593L36.1656 66.1028V67.3577V68.6125L36.2872 69.1248C36.5782 70.3488 37.0607 71.3011 37.8638 72.2294C38.7037 73.1955 39.9488 73.9828 41.3412 74.4229C42.3801 74.7529 43.4852 74.9592 45.8354 75.2652C46.108 75.303 46.4727 75.3546 46.6458 75.3821C47.0142 75.4371 49.0513 75.4543 49.556 75.4027ZM73.4229 75.3683C73.865 75.3065 74.1449 75.2686 75.0658 75.1449C76.4841 74.9558 77.8655 74.6807 78.6354 74.4366C79.7921 74.0653 80.8604 73.4568 81.6597 72.7073C82.0318 72.3566 82.5438 71.7515 82.798 71.3561C83.1922 70.7407 83.5458 69.8606 83.73 69.0423C83.8331 68.5816 83.8331 68.5644 83.8331 67.3405V66.1028L83.73 65.7246C83.3579 64.3597 82.5328 63.5002 81.3171 63.2114C81.0114 63.1392 80.8862 63.1288 80.2894 63.1288C79.5416 63.1288 79.1253 63.1873 78.6133 63.3558C78.4659 63.4073 77.6887 63.7202 76.8893 64.0571C73.5703 65.4495 71.2642 66.3572 67.551 67.7427C66.538 68.1175 65.5839 68.475 65.4329 68.5335C64.2946 68.9667 63.5542 69.5477 63.2263 70.2594C63.1379 70.4588 63.1305 70.4966 63.1305 71.0708C63.1342 71.6346 63.1379 71.6862 63.23 71.9062C63.6168 72.8448 64.5119 73.6562 65.8749 74.2991C67.1827 74.918 68.3357 75.1964 70.5164 75.413C70.5864 75.4199 71.1648 75.4302 71.8021 75.4302C72.7893 75.4371 73.0287 75.4268 73.4229 75.3683ZM53.1587 56.2218C53.3502 56.1599 53.6891 56.0121 55.8183 55.0666C58.2643 53.9802 59.5426 53.4198 59.7047 53.3579C60.0436 53.2307 60.0546 53.2341 61.9333 54.0696C67.0132 56.3284 66.8327 56.2493 67.039 56.2768C67.1606 56.2905 67.2048 56.2802 67.2895 56.2115C67.4405 56.0911 67.4516 55.9055 67.3337 55.3176C67.2784 55.046 67.1937 54.6093 67.1421 54.3446C67.0906 54.0799 67.0095 53.6639 66.9616 53.4163C66.9137 53.1722 66.8401 52.7906 66.7995 52.574C66.759 52.3574 66.6817 51.9689 66.6338 51.7145C66.5822 51.4601 66.4901 50.9787 66.4275 50.6487C66.3649 50.3186 66.2838 49.8992 66.247 49.7204C66.2065 49.5416 66.1549 49.2528 66.1291 49.0809C66.0849 48.7681 66.0849 48.7646 66.1807 48.5755C66.2691 48.414 66.3943 48.2971 67.0795 47.7401C67.5179 47.3825 68.0778 46.9287 68.3209 46.7293C68.5677 46.5299 68.9472 46.2205 69.1719 46.0417C70.5533 44.9346 71.4889 44.1611 71.57 44.0648C71.6216 44.0029 71.6731 43.8963 71.6842 43.8276C71.7026 43.7244 71.6879 43.6901 71.5995 43.6075C71.5074 43.5216 71.43 43.4975 71.069 43.4356C70.8369 43.3978 70.498 43.3463 70.3138 43.3256C70.1333 43.305 69.916 43.2741 69.8349 43.2569C69.7539 43.2397 69.5402 43.2087 69.3561 43.1915C69.1756 43.1709 68.8182 43.1228 68.5641 43.085C68.111 43.0162 67.5252 42.9371 66.2249 42.7583C64.162 42.473 63.9889 42.4283 63.7531 42.1223C63.6905 42.0364 63.0937 40.9706 62.427 39.75C60.4525 36.1263 60.3677 35.9751 60.2756 35.8822C60.0767 35.6828 59.8004 35.7516 59.5978 36.0473C59.5315 36.147 58.9163 37.2643 58.2349 38.5295C56.4888 41.7613 56.3525 42.002 56.1314 42.2117C55.8773 42.4592 55.9288 42.4455 53.9028 42.7412C53.6486 42.779 53.376 42.8134 53.295 42.8237C53.1034 42.8477 52.0241 42.999 51.4347 43.085C51.1805 43.1228 50.8269 43.1709 50.6427 43.1915C50.4622 43.2087 50.2448 43.2397 50.1638 43.2569C50.0828 43.2741 49.8691 43.305 49.6849 43.3256C49.5044 43.3463 49.1618 43.3978 48.9297 43.4356C48.5687 43.4975 48.4914 43.5216 48.3993 43.6075C48.3109 43.6901 48.2961 43.7244 48.3146 43.8276C48.3477 44.0064 48.4619 44.1267 49.0255 44.584C49.3018 44.8109 49.7991 45.2097 50.1233 45.4744C50.4511 45.7391 51.0737 46.2411 51.5047 46.5918C53.7002 48.3624 53.8365 48.4861 53.888 48.7406C53.9102 48.8609 53.796 49.5313 53.446 51.2847C53.376 51.6457 53.2581 52.2543 53.1845 52.6428C53.1108 53.0313 53.0224 53.5023 52.9819 53.6914C52.945 53.8805 52.8713 54.2518 52.8198 54.5165C52.7682 54.7812 52.6945 55.1697 52.6503 55.3795C52.5324 55.9777 52.5619 56.1737 52.7756 56.2527C52.8898 56.2974 52.9266 56.294 53.1587 56.2218Z" fill="white"/>
</svg>
