<svg width="120" height="120" viewBox="0 0 120 120" fill="none" xmlns="http://www.w3.org/2000/svg">
<path d="M59.9961 6.00098C89.8193 6.00098 113.996 30.1775 113.996 60.001C113.996 89.8243 89.8194 114.001 59.9961 114.001C30.1727 114.001 5.99609 89.8243 5.99609 60.001C5.99622 30.1775 30.1728 6.00098 59.9961 6.00098Z" fill="#E81C5B" stroke="black" stroke-width="2"/>
<path d="M49.7007 71.2326C48.3236 72.6168 47.3959 74.3844 47.0387 76.3038C47.0387 78.1626 47.9682 82.7826 50.5642 82.7826C52.2142 82.7826 55.4152 79.125 56.4162 77.904C63.7503 68.5254 72.2907 60.1554 81.8151 53.0112L81.9471 53.1377C77.2833 58.9897 68.8515 68.6034 68.8515 76.3038C68.8515 80.0274 70.3149 84.0696 74.7039 84.0696C80.4237 84.0696 94.7181 73.1634 96.3129 68.7354L96.0489 66.2994C87.0675 74.6976 81.8811 77.5854 80.0331 77.5854C78.4383 77.5854 77.7069 75.726 77.7069 74.439C78.7341 68.9268 81.3981 63.852 85.3515 59.8752L95.6589 47.7752C96.4563 46.8127 98.5185 44.5687 98.5185 43.2817C98.5185 41.9947 95.7249 37.7817 93.9315 37.7817C92.7327 37.7817 91.4073 39.1292 90.5385 39.8332C81.8259 46.5047 74.1813 53.5007 66.0027 60.2988L65.8707 60.1722C68.6205 56.1297 75.7707 46.6312 75.7707 41.8847C75.6903 40.6656 75.1389 39.5254 74.2341 38.7046C73.3293 37.8838 72.1407 37.4464 70.9197 37.4847C68.1699 37.5507 62.5431 42.3632 60.0849 44.6072L49.5027 54.4247L49.3707 54.2982C51.0242 50.6854 52.4031 46.9532 53.4957 43.1332C53.4642 42.2622 53.1877 41.4178 52.6982 40.6967L51.1032 38.0017C50.4377 36.9017 50.1737 36.0107 48.5787 35.9502C44.2473 36.9869 40.0409 38.4898 36.0332 40.4327L28.5202 43.7712L28.3332 43.6447C30.9237 41.4447 31.8587 40.3062 31.8587 39.9212C31.8587 39.5362 31.3912 39.2777 31.0612 39.2777C30.4502 39.4472 29.8859 39.7538 29.4112 40.1742C23.4932 44.2167 23.9112 44.0902 23.2952 44.8602C22.4544 47.3162 21.8791 49.8551 21.5792 52.4337C21.2492 53.9737 22.1292 54.8097 23.1742 54.8097C26.5677 54.8097 23.3722 54.6832 43.8542 45.4597C44.5 45.0902 45.2025 44.83 45.9332 44.6897C47.0662 44.6897 48.2597 45.9712 41.2802 58.0382L27.3652 74.9394C28.0967 76.9308 29.4277 81.996 32.2162 81.996C34.3447 81.996 36.0057 79.5594 37.1387 78.0804L47.1102 65.1384L63.0603 48.4572C63.5277 47.9457 64.3251 47.1097 65.1225 47.1097C65.9199 47.1097 66.1179 47.8137 64.9905 49.8597C61.9329 55.4274 58.3252 60.675 54.2217 65.5236L49.7007 71.2326Z" fill="white"/>
</svg>
